<svg xmlns="http://www.w3.org/2000/svg" viewBox="0 0 360 240" fill="none">
  <defs>
    <linearGradient id="bg" x1="0" y1="0" x2="0" y2="1">
      <stop offset="0%" stop-color="#f8f1e7"/>
      <stop offset="100%" stop-color="#ece0d0"/>
    </linearGradient>
    <linearGradient id="desk" x1="0" y1="0" x2="1" y2="1">
      <stop offset="0%" stop-color="#c49a6c"/>
      <stop offset="100%" stop-color="#a66f47"/>
    </linearGradient>
  </defs>
  <rect x="8" y="8" width="344" height="224" rx="24" fill="url(#bg)"/>
  <rect x="26" y="26" width="308" height="188" rx="20" fill="#fffdf8" opacity="0.72"/>
  <rect x="54" y="84" width="168" height="74" rx="16" fill="url(#desk)"/>
  <rect x="66" y="94" width="120" height="42" rx="8" fill="#2f3a45"/>
  <rect x="92" y="138" width="25" height="10" rx="5" fill="#6b4f35"/>
  <rect x="124" y="138" width="25" height="10" rx="5" fill="#6b4f35"/>
  <circle cx="188" cy="100" r="10" fill="#f8efe4" stroke="#dcc9b4"/>
  <path d="M186 102h4" stroke="#8aa56f" stroke-width="2.5" stroke-linecap="round"/>
  <path d="M189 103l4 4" stroke="#b08968" stroke-width="2" stroke-linecap="round"/>
  <rect x="242" y="72" width="58" height="92" rx="18" fill="#f7f2ea" stroke="#e5d3c1"/>
  <path d="M256 84h30" stroke="#cbbaa7" stroke-width="4" stroke-linecap="round"/>
  <path d="M256 96h22" stroke="#dfd2c6" stroke-width="4" stroke-linecap="round"/>
  <path d="M256 108h26" stroke="#b7c7be" stroke-width="4" stroke-linecap="round"/>
  <rect x="255" y="125" width="34" height="18" rx="6" fill="#eef4ef"/>
  <path d="M259 134h12" stroke="#8aa56f" stroke-width="3" stroke-linecap="round"/>
  <circle cx="300" cy="176" r="18" fill="#f4eadf" stroke="#dcc9b4"/>
  <path d="M294 176h12" stroke="#8a6148" stroke-width="3" stroke-linecap="round"/>
  <path d="M301 170l5 5" stroke="#b08968" stroke-width="2" stroke-linecap="round"/>
  <path d="M54 178H302" stroke="#d9c9b5" stroke-width="4" stroke-linecap="round" opacity="0.7"/>
  <path d="M34 58h44" stroke="#e5d8ca" stroke-width="4" stroke-linecap="round"/>
  <path d="M290 36h40" stroke="#e5d8ca" stroke-width="4" stroke-linecap="round"/>
  <circle cx="314" cy="42" r="4" fill="#fff" opacity="0.9"/>
</svg>