<svg xmlns="http://www.w3.org/2000/svg" viewBox="0 0 360 240" fill="none">
  <defs>
    <linearGradient id="bg" x1="0" y1="0" x2="1" y2="1">
      <stop offset="0%" stop-color="#f7f5ef"/>
      <stop offset="100%" stop-color="#ece4d9"/>
    </linearGradient>
    <linearGradient id="card" x1="0" y1="0" x2="0" y2="1">
      <stop offset="0%" stop-color="#fffdf8"/>
      <stop offset="100%" stop-color="#f6ebdd"/>
    </linearGradient>
    <linearGradient id="desk" x1="0" y1="0" x2="1" y2="1">
      <stop offset="0%" stop-color="#c39a6f"/>
      <stop offset="100%" stop-color="#a56f48"/>
    </linearGradient>
    <filter id="shadow" x="-20%" y="-20%" width="140%" height="140%">
      <feDropShadow dx="0" dy="8" stdDeviation="10" flood-color="#8b6b4a" flood-opacity="0.12"/>
    </filter>
  </defs>
  <rect x="8" y="8" width="344" height="224" rx="24" fill="url(#bg)"/>
  <rect x="20" y="20" width="320" height="200" rx="20" fill="url(#card)" opacity="0.78"/>
  <path d="M26 174C74 156 121 148 180 148C239 148 286 156 334 174V216H26V174Z" fill="#f4eee6"/>
  <g filter="url(#shadow)">
    <rect x="210" y="86" width="96" height="60" rx="12" fill="url(#desk)"/>
    <rect x="222" y="94" width="72" height="34" rx="6" fill="#2f3a45"/>
    <rect x="235" y="130" width="18" height="11" rx="5.5" fill="#6b4f35"/>
    <rect x="258" y="130" width="18" height="11" rx="5.5" fill="#6b4f35"/>
    <circle cx="294" cy="97" r="10" fill="#f8efe4" stroke="#dcc9b4"/>
    <path d="M292 99h4" stroke="#7f8b96" stroke-width="2.5" stroke-linecap="round"/>
    <path d="M295 100l4 4" stroke="#b08968" stroke-width="2" stroke-linecap="round"/>
  </g>
  <g transform="translate(30 38)">
    <circle cx="64" cy="56" r="50" fill="#fff8f0" stroke="#e5d3c1" stroke-width="2"/>
    <circle cx="64" cy="56" r="42" fill="#f7efe6"/>
    <path d="M31 32c6-9 17-16 30-18 14-2 27 1 38 10" stroke="#8a6b54" stroke-width="10" stroke-linecap="round"/>
    <path d="M35 48c-8 0-14 6-14 14 0 8 5 14 13 15" fill="#c4a07c"/>
    <path d="M93 48c8 0 14 6 14 14 0 8-5 14-13 15" fill="#c4a07c"/>
    <ellipse cx="64" cy="60" rx="27" ry="22" fill="#d9bea3"/>
    <circle cx="55" cy="57" r="3" fill="#2f2418"/>
    <circle cx="74" cy="57" r="3" fill="#2f2418"/>
    <path d="M55 69c4 2 14 2 18 0" stroke="#8a614d" stroke-width="2.5" stroke-linecap="round"/>
    <path d="M42 72c5 6 14 10 22 10s17-4 23-10" stroke="#8a6b54" stroke-width="4" stroke-linecap="round" opacity="0.55"/>
  </g>
  <rect x="118" y="67" width="62" height="92" rx="18" fill="#f9f4ed" stroke="#e3d2c0"/>
  <path d="M132 79h34" stroke="#cbbaa7" stroke-width="4" stroke-linecap="round"/>
  <path d="M132 90h24" stroke="#dfd2c6" stroke-width="4" stroke-linecap="round"/>
  <path d="M136 103h30" stroke="#b7c7be" stroke-width="4" stroke-linecap="round"/>
  <rect x="127" y="120" width="42" height="18" rx="6" fill="#eef4ef"/>
  <path d="M131 129h14" stroke="#7f8b96" stroke-width="3" stroke-linecap="round"/>
  <path d="M147 129h16" stroke="#c6d8ce" stroke-width="3" stroke-linecap="round"/>
  <path d="M22 41h44" stroke="#e6d7c7" stroke-width="4" stroke-linecap="round"/>
  <path d="M294 40h34" stroke="#e6d7c7" stroke-width="4" stroke-linecap="round"/>
  <circle cx="305" cy="45" r="4" fill="#fff" opacity="0.9"/>
</svg>